<?xml version="1.0" standalone="no"?>
<!DOCTYPE svg PUBLIC "-//W3C//DTD SVG 20010904//EN"
 "http://www.w3.org/TR/2001/REC-SVG-20010904/DTD/svg10.dtd">
<svg version="1.0" xmlns="http://www.w3.org/2000/svg"
 width="100.000000pt" height="98.000000pt" viewBox="0 0 100.000000 98.000000"
 preserveAspectRatio="xMidYMid meet">
<metadata>
Created by potrace 1.15, written by Peter Selinger 2001-2017
</metadata>
<g transform="translate(0.000000,98.000000) scale(0.100000,-0.100000)"
fill="#000000" stroke="none">
<path d="M360 951 c-172 -55 -285 -175 -325 -342 -33 -140 -10 -274 65 -387
49 -73 108 -123 192 -162 95 -45 149 -51 429 -48 l254 3 3 225 c2 124 -2 261
-8 305 -32 248 -234 426 -479 424 -44 0 -99 -8 -131 -18z m304 -107 c238 -117
295 -424 115 -619 -108 -117 -277 -154 -434 -94 -73 27 -169 119 -204 193 -97
210 4 456 221 537 83 30 223 23 302 -17z"/>
<path d="M467 742 c-14 -15 -17 -42 -17 -155 0 -123 2 -139 20 -157 22 -22 45
-18 60 11 6 10 10 75 10 146 0 100 -3 133 -16 151 -18 27 -36 28 -57 4z"/>
<path d="M281 634 c-62 -97 -62 -208 -1 -292 56 -78 123 -112 219 -112 168 0
294 164 247 322 -23 79 -60 128 -96 128 -23 0 -31 -5 -36 -25 -4 -17 -1 -32 9
-43 63 -72 63 -177 -1 -246 -50 -53 -128 -70 -195 -42 -38 16 -94 76 -103 112
-12 48 2 121 30 159 37 48 30 85 -14 85 -25 0 -36 -8 -59 -46z"/>
</g>
</svg>
